name C:\Users\Nicos\Documents\OpenSimProjects\SprintingProject\Study1\PredictiveResults\IC_pred_Sprinting_optimum_26-October-2023__20-13-02___IKTD_Plus_6_p02_maxVel_01.mot
datacolumns 38
datarows 7
range 0.16041385 0.16728406
endheader
                time	/jointset/ground_pelvis/pelvis_tilt/value	/jointset/ground_pelvis/pelvis_list/value	/jointset/ground_pelvis/pelvis_rotation/value	/jointset/ground_pelvis/pelvis_tx/value	/jointset/ground_pelvis/pelvis_ty/value	/jointset/ground_pelvis/pelvis_tz/value	/jointset/hip_r/hip_flexion_r/value	/jointset/hip_r/hip_adduction_r/value	/jointset/hip_r/hip_rotation_r/value	/jointset/knee_r/knee_angle_r/value	/jointset/ankle_r/ankle_angle_r/value	/jointset/subtalar_r/subtalar_angle_r/value	/jointset/mtp_r/mtp_angle_r/value	/jointset/hip_l/hip_flexion_l/value	/jointset/hip_l/hip_adduction_l/value	/jointset/hip_l/hip_rotation_l/value	/jointset/knee_l/knee_angle_l/value	/jointset/ankle_l/ankle_angle_l/value	/jointset/subtalar_l/subtalar_angle_l/value	/jointset/mtp_l/mtp_angle_l/value	/jointset/back/lumbar_extension/value	/jointset/back/lumbar_bending/value	/jointset/back/lumbar_rotation/value	/jointset/acromial_r/arm_flex_r/value	/jointset/acromial_r/arm_add_r/value	/jointset/acromial_r/arm_rot_r/value	/jointset/elbow_r/elbow_flex_r/value	/jointset/radioulnar_r/pro_sup_r/value	/jointset/radius_hand_r/wrist_flex_r/value	/jointset/radius_hand_r/wrist_dev_r/value	/jointset/acromial_l/arm_flex_l/value	/jointset/acromial_l/arm_add_l/value	/jointset/acromial_l/arm_rot_l/value	/jointset/elbow_l/elbow_flex_l/value	/jointset/radioulnar_l/pro_sup_l/value	/jointset/radius_hand_l/wrist_flex_l/value	/jointset/radius_hand_l/wrist_dev_l/value	
          0.16041385	         -8.58568615	          6.80473097	        -19.24556138	          1.24650304	          0.96467318	          0.30886199	         -4.14780309	        -15.50282405	          9.80768976	        -51.42332147	        -30.53553249	        -15.02642882	         -8.21058223	         82.05755373	        -12.52002157	         -1.92330080	       -106.16423974	         -3.54314870	        -22.35279160	         15.66675282	        -11.33044777	         -5.37081869	         11.02399086	         89.99704212	          0.52593803	         -0.02639014	        101.52859370	         86.47912520	         -9.35155534	          8.01195296	        -74.17455956	         -5.01615625	         -0.17662371	         68.99406124	         77.16062179	        -30.14858857	          7.34704956	
          0.16106143	         -8.58745401	          6.81365889	        -19.21637728	          1.25392263	          0.96488919	          0.30899704	         -4.15950179	        -15.50477660	          9.86711952	        -51.86996934	        -30.63582683	        -14.89915253	         -8.06581462	         82.08207495	        -12.55919117	         -1.93908326	       -105.43401435	         -3.74918679	        -22.35861351	         15.66678319	        -11.37560097	         -5.44564705	         11.00868477	         90.00000000	          0.59888555	         -0.04055789	        101.56701495	         86.49390601	         -9.28263732	          7.99198644	        -74.07331233	         -4.90999052	         -0.21233849	         68.43711254	         76.88666410	        -30.17794530	          7.35138297	
          0.16310751	         -8.59651431	          6.85105341	        -19.11519218	          1.27732553	          0.96560016	          0.30942488	         -4.17285245	        -15.50983722	         10.04199348	        -53.29466246	        -30.90167858	        -14.51098449	         -7.62193392	         82.10296084	        -12.66927772	         -2.01799737	       -103.06991886	         -4.41069898	        -22.38117608	         15.66682923	        -11.51818000	         -5.69576728	         10.95670379	         89.94773824	          0.78605896	         -0.11001820	        101.76406693	         86.53812485	         -9.07489611	          7.92889750	        -73.72561677	         -4.60627745	         -0.33152598	         66.75069461	         76.04338869	        -30.26555454	          7.35384746	
          0.16459040	         -8.60492501	          6.88219097	        -19.03238112	          1.29425245	          0.96614565	          0.30973392	         -4.16521691	        -15.50877800	         10.15323292	        -54.33619010	        -31.03776742	        -14.26784307	         -7.31642292	         82.06318288	        -12.73561567	         -2.09812143	       -101.30462961	         -4.89952517	        -22.40041585	         15.66674640	        -11.62463948	         -5.88493089	         10.91550337	         89.85221320	          0.88058862	         -0.18490916	        101.97553508	         86.56831064	         -8.93427882	          7.88317540	        -73.44823700	         -4.41425437	         -0.43041147	         65.59808142	         75.45433409	        -30.32413793	          7.34589498	
          0.16459040	         -8.60492501	          6.88219097	        -19.03238112	          1.29425245	          0.96614565	          0.30973392	         -4.16521691	        -15.50877800	         10.15323292	        -54.33619010	        -31.03776742	        -14.26784307	         -7.31642292	         82.06318288	        -12.73561567	         -2.09812143	       -101.30462961	         -4.89952517	        -22.40041585	         15.66674640	        -11.62463948	         -5.88493089	         10.91550337	         89.85221320	          0.88058862	         -0.18490916	        101.97553508	         86.56831064	         -8.93427882	          7.88317540	        -73.44823700	         -4.41425437	         -0.43041147	         65.59808142	         75.45433409	        -30.32413793	          7.34589498	
          0.16523798	         -8.60863611	          6.89566631	        -18.99355741	          1.30163641	          0.96639270	          0.30986811	         -4.15864252	        -15.50617674	         10.19702841	        -54.79243752	        -31.08062570	        -14.17725744	         -7.18834870	         82.03098176	        -12.76098266	         -2.13798858	       -100.52066992	         -5.11519896	        -22.40921972	         15.66673870	        -11.67283984	         -5.96832904	         10.89658668	         89.79562096	          0.91102806	         -0.22388690	        102.08481700	         86.58113138	         -8.87561460	          7.86320883	        -73.32065939	         -4.33728755	         -0.47845496	         65.11308627	         75.20317494	        -30.34841827	          7.34009011	
          0.16728406	         -8.61430420	          6.93174144	        -18.85912628	          1.32494022	          0.96721788	          0.31028663	         -4.13602126	        -15.48617853	         10.31249256	        -56.23417775	        -31.15376457	        -13.97318814	         -6.81023310	         81.86365211	        -12.82556051	         -2.27905002	        -97.99485308	         -5.80116899	        -22.43376411	         15.66628418	        -11.84071516	         -6.23005220	         10.83194656	         89.56051704	          0.96389329	         -0.37432967	        102.48653375	         86.61962010	         -8.70168999	          7.80011880	        -72.89296363	         -4.11631395	         -0.66583793	         63.65401220	         74.43584808	        -30.41989543	          7.31294909	
